{
	"asset":{
		"generator":"Khronos glTF Blender I/O v4.3.47",
		"version":"2.0"
	},
	"scene":0,
	"scenes":[
		{
			"name":"Scene",
			"nodes":[
				0,
				1,
				2,
				3,
				4,
				5,
				6,
				7,
				8,
				9,
				10,
				11,
				12,
				13,
				14
			]
		}
	],
	"nodes":[
		{
			"mesh":0,
			"name":"Icosphere",
			"rotation":[
				0.009031206369400024,
				0.012190298177301884,
				0.03535442799329758,
				0.9992597699165344
			],
			"scale":[
				2.996577501296997,
				1.0197112560272217,
				1.0025047063827515
			]
		},
		{
			"mesh":1,
			"name":"Icosphere.001",
			"rotation":[
				-0.0012947942595928907,
				-0.004760370124131441,
				0.18100056052207947,
				0.983470618724823
			],
			"scale":[
				2.1081960201263428,
				1.0102119445800781,
				0.8293522596359253
			],
			"translation":[
				0.48204749822616577,
				0.12243817746639252,
				0
			]
		},
		{
			"mesh":2,
			"name":"Icosphere.002",
			"rotation":[
				0.0004936875193379819,
				-0.0049085598438978195,
				0.5208189487457275,
				0.8536528944969177
			],
			"scale":[
				0.6563302874565125,
				0.3035636842250824,
				0.4052600562572479
			],
			"translation":[
				2.4487671852111816,
				0.12243817746639252,
				-0.04893139749765396
			]
		},
		{
			"mesh":3,
			"name":"B\u00e9zierCurve",
			"rotation":[
				0.7066601514816284,
				0.006037088111042976,
				-0.006029907613992691,
				0.7075017094612122
			],
			"scale":[
				1,
				1,
				2.1284611225128174
			],
			"translation":[
				2.430917501449585,
				1.0972009897232056,
				0
			]
		},
		{
			"mesh":4,
			"name":"Sphere",
			"rotation":[
				0.05212447792291641,
				0.006124896463006735,
				-0.018652519211173058,
				0.9984477162361145
			],
			"scale":[
				0.33177271485328674,
				0.33177268505096436,
				0.33177268505096436
			],
			"translation":[
				3.60387921333313,
				0.998985767364502,
				-0.022931426763534546
			]
		},
		{
			"mesh":5,
			"name":"Sphere.001",
			"rotation":[
				0.05212447792291641,
				0.006124896463006735,
				-0.018652519211173058,
				0.9984477162361145
			],
			"scale":[
				0.33177271485328674,
				0.33177268505096436,
				0.33177268505096436
			],
			"translation":[
				1.901746392250061,
				0.8872509002685547,
				-0.3844471871852875
			]
		},
		{
			"mesh":6,
			"name":"Sphere.002",
			"rotation":[
				0.05212447792291641,
				0.006124896463006735,
				-0.018652519211173058,
				0.9984477162361145
			],
			"scale":[
				0.33177271485328674,
				0.33177268505096436,
				0.33177268505096436
			],
			"translation":[
				1.901746392250061,
				0.8872509002685547,
				0.3804734945297241
			]
		},
		{
			"mesh":7,
			"name":"NurbsCurve",
			"scale":[
				1,
				0.329143226146698,
				4.228811264038086
			],
			"translation":[
				0,
				0,
				2.7821385860443115
			]
		},
		{
			"mesh":8,
			"name":"NurbsCurve.001",
			"rotation":[
				-0.9999840259552002,
				0,
				0,
				0.0056529175490140915
			],
			"scale":[
				1,
				0.329143226146698,
				4.228811264038086
			],
			"translation":[
				0,
				0,
				-2.828946113586426
			]
		},
		{
			"mesh":9,
			"name":"NurbsCurve.002",
			"rotation":[
				0.3599633574485779,
				0.5931031703948975,
				0.5644485950469971,
				0.4472726285457611
			],
			"scale":[
				0.34674882888793945,
				0.766185462474823,
				5.946572303771973
			],
			"translation":[
				-0.6381560564041138,
				0.5442926287651062,
				0.12978410720825195
			]
		},
		{
			"mesh":10,
			"name":"NurbsCurve.003",
			"rotation":[
				0.5107420086860657,
				0.44038933515548706,
				0.5027435421943665,
				0.5407853722572327
			],
			"scale":[
				0.3319985270500183,
				0.7645836472511292,
				8.94755744934082
			],
			"translation":[
				0.09392780065536499,
				-0.7199667692184448,
				0.10480517894029617
			]
		},
		{
			"mesh":11,
			"name":"Cone",
			"rotation":[
				0.9926921129226685,
				0.12067487090826035,
				0,
				0
			],
			"scale":[
				-0.02728581428527832,
				-1,
				-0.04143991693854332
			],
			"translation":[
				-0.03629188612103462,
				1.3410403728485107,
				0
			]
		},
		{
			"mesh":12,
			"name":"Cone.001",
			"rotation":[
				0.9926921129226685,
				0.12067487090826035,
				0,
				0
			],
			"scale":[
				-0.02728581428527832,
				-1,
				-0.04143991693854332
			],
			"translation":[
				0.44722506403923035,
				1.2373707294464111,
				0.015094839036464691
			]
		},
		{
			"mesh":13,
			"name":"Cone.002",
			"rotation":[
				-0.7703163027763367,
				-0.1551084816455841,
				-0.5944626927375793,
				0.17078733444213867
			],
			"scale":[
				-0.02728581428527832,
				-1,
				-0.04143991693854332
			],
			"translation":[
				-0.5626603364944458,
				0.9334229826927185,
				0.036877647042274475
			]
		},
		{
			"mesh":14,
			"name":"Cone.004",
			"rotation":[
				0.9926921129226685,
				0.12067487090826035,
				0,
				0
			],
			"scale":[
				-0.02595624513924122,
				-0.14524854719638824,
				-0.04143991693854332
			],
			"translation":[
				2.6170196533203125,
				0.6219095587730408,
				-0.15841102600097656
			]
		}
	],
	"materials":[
		{
			"doubleSided":true,
			"name":"Material.006",
			"pbrMetallicRoughness":{
				"baseColorFactor":[
					0.08865445852279663,
					0.2158604860305786,
					0.7991031408309937,
					1
				],
				"metallicFactor":0,
				"roughnessFactor":0.5
			}
		},
		{
			"doubleSided":true,
			"name":"Material.007",
			"pbrMetallicRoughness":{
				"baseColorFactor":[
					0.08865445852279663,
					0.2158604860305786,
					0.7991031408309937,
					1
				],
				"metallicFactor":0,
				"roughnessFactor":0.5
			}
		},
		{
			"doubleSided":true,
			"name":"Material.008",
			"pbrMetallicRoughness":{
				"baseColorFactor":[
					0.17464596033096313,
					0.16202929615974426,
					0.7991031408309937,
					1
				],
				"metallicFactor":0,
				"roughnessFactor":0.5
			}
		},
		{
			"doubleSided":true,
			"name":"Material.013",
			"pbrMetallicRoughness":{
				"baseColorFactor":[
					0.17464596033096313,
					0.16202929615974426,
					0.7991031408309937,
					1
				],
				"metallicFactor":0,
				"roughnessFactor":0.5
			}
		},
		{
			"doubleSided":true,
			"name":"Material.002",
			"pbrMetallicRoughness":{
				"baseColorFactor":[
					0.7769417762756348,
					0.030905213207006454,
					0.800039529800415,
					1
				],
				"metallicFactor":0,
				"roughnessFactor":0.5
			}
		},
		{
			"doubleSided":true,
			"name":"Material.014",
			"pbrMetallicRoughness":{
				"baseColorFactor":[
					0.21952484548091888,
					0.11193245649337769,
					0.2050788253545761,
					1
				],
				"metallicFactor":0,
				"roughnessFactor":0.5
			}
		},
		{
			"doubleSided":true,
			"name":"Material.015",
			"pbrMetallicRoughness":{
				"baseColorFactor":[
					0.21952484548091888,
					0.11193245649337769,
					0.2050788253545761,
					1
				],
				"metallicFactor":0,
				"roughnessFactor":0.5
			}
		},
		{
			"doubleSided":true,
			"name":"Material.009",
			"pbrMetallicRoughness":{
				"baseColorFactor":[
					0.17464596033096313,
					0.16202929615974426,
					0.7991031408309937,
					1
				],
				"metallicFactor":0,
				"roughnessFactor":0.5
			}
		},
		{
			"doubleSided":true,
			"name":"Material.010",
			"pbrMetallicRoughness":{
				"baseColorFactor":[
					0.17464596033096313,
					0.16202929615974426,
					0.7991031408309937,
					1
				],
				"metallicFactor":0,
				"roughnessFactor":0.5
			}
		},
		{
			"doubleSided":true,
			"name":"Material.011",
			"pbrMetallicRoughness":{
				"baseColorFactor":[
					0.17464596033096313,
					0.16202929615974426,
					0.7991031408309937,
					1
				],
				"metallicFactor":0,
				"roughnessFactor":0.5
			}
		},
		{
			"doubleSided":true,
			"name":"Material.012",
			"pbrMetallicRoughness":{
				"baseColorFactor":[
					0.17464596033096313,
					0.16202929615974426,
					0.7991031408309937,
					1
				],
				"metallicFactor":0,
				"roughnessFactor":0.5
			}
		},
		{
			"doubleSided":true,
			"name":"Material.003",
			"pbrMetallicRoughness":{
				"baseColorFactor":[
					0.0024277030024677515,
					0,
					0.7991030812263489,
					1
				],
				"metallicFactor":0,
				"roughnessFactor":0.5
			}
		},
		{
			"doubleSided":true,
			"name":"Material.004",
			"pbrMetallicRoughness":{
				"baseColorFactor":[
					0.0024277030024677515,
					0,
					0.7991030812263489,
					1
				],
				"metallicFactor":0,
				"roughnessFactor":0.5
			}
		},
		{
			"doubleSided":true,
			"name":"Material.005",
			"pbrMetallicRoughness":{
				"baseColorFactor":[
					0.0024277030024677515,
					0,
					0.7991030812263489,
					1
				],
				"metallicFactor":0,
				"roughnessFactor":0.5
			}
		},
		{
			"doubleSided":true,
			"name":"Material.001",
			"pbrMetallicRoughness":{
				"baseColorFactor":[
					0.8000315427780151,
					0.7038690447807312,
					0.16841529309749603,
					1
				],
				"metallicFactor":0,
				"roughnessFactor":0.5
			}
		}
	],
	"meshes":[
		{
			"name":"Icosphere",
			"primitives":[
				{
					"attributes":{
						"POSITION":0,
						"NORMAL":1,
						"TEXCOORD_0":2
					},
					"indices":3,
					"material":0
				}
			]
		},
		{
			"name":"Icosphere.001",
			"primitives":[
				{
					"attributes":{
						"POSITION":4,
						"NORMAL":5,
						"TEXCOORD_0":6
					},
					"indices":3,
					"material":1
				}
			]
		},
		{
			"name":"Icosphere.002",
			"primitives":[
				{
					"attributes":{
						"POSITION":7,
						"NORMAL":8,
						"TEXCOORD_0":9
					},
					"indices":3,
					"material":2
				}
			]
		},
		{
			"name":"B\u00e9zierCurve.001",
			"primitives":[
				{
					"attributes":{
						"POSITION":10,
						"NORMAL":11,
						"TEXCOORD_0":12
					},
					"indices":13,
					"material":3
				}
			]
		},
		{
			"name":"Sphere",
			"primitives":[
				{
					"attributes":{
						"POSITION":14,
						"NORMAL":15,
						"TEXCOORD_0":16
					},
					"indices":17,
					"material":4
				}
			]
		},
		{
			"name":"Sphere.001",
			"primitives":[
				{
					"attributes":{
						"POSITION":18,
						"NORMAL":19,
						"TEXCOORD_0":20
					},
					"indices":17,
					"material":5
				}
			]
		},
		{
			"name":"Sphere.002",
			"primitives":[
				{
					"attributes":{
						"POSITION":21,
						"NORMAL":22,
						"TEXCOORD_0":23
					},
					"indices":17,
					"material":6
				}
			]
		},
		{
			"name":"NurbsCurve",
			"primitives":[
				{
					"attributes":{
						"POSITION":24,
						"NORMAL":25,
						"TEXCOORD_0":26
					},
					"indices":27,
					"material":7
				}
			]
		},
		{
			"name":"NurbsCurve.001",
			"primitives":[
				{
					"attributes":{
						"POSITION":28,
						"NORMAL":29,
						"TEXCOORD_0":30
					},
					"indices":27,
					"material":8
				}
			]
		},
		{
			"name":"NurbsCurve.002",
			"primitives":[
				{
					"attributes":{
						"POSITION":31,
						"NORMAL":32,
						"TEXCOORD_0":33
					},
					"indices":27,
					"material":9
				}
			]
		},
		{
			"name":"NurbsCurve.003",
			"primitives":[
				{
					"attributes":{
						"POSITION":34,
						"NORMAL":35,
						"TEXCOORD_0":36
					},
					"indices":27,
					"material":10
				}
			]
		},
		{
			"name":"Cone",
			"primitives":[
				{
					"attributes":{
						"POSITION":37,
						"NORMAL":38,
						"TEXCOORD_0":39
					},
					"indices":40,
					"material":11
				}
			]
		},
		{
			"name":"Cone.001",
			"primitives":[
				{
					"attributes":{
						"POSITION":41,
						"NORMAL":42,
						"TEXCOORD_0":43
					},
					"indices":40,
					"material":12
				}
			]
		},
		{
			"name":"Cone.002",
			"primitives":[
				{
					"attributes":{
						"POSITION":44,
						"NORMAL":45,
						"TEXCOORD_0":46
					},
					"indices":40,
					"material":13
				}
			]
		},
		{
			"name":"Cone.004",
			"primitives":[
				{
					"attributes":{
						"POSITION":47,
						"NORMAL":48,
						"TEXCOORD_0":49
					},
					"indices":50,
					"material":14
				}
			]
		}
	],
	"accessors":[
		{
			"bufferView":0,
			"componentType":5126,
			"count":240,
			"max":[
				0.9510578513145447,
				1,
				0.9999999403953552
			],
			"min":[
				-0.9510578513145447,
				-1,
				-0.9999999403953552
			],
			"type":"VEC3"
		},
		{
			"bufferView":1,
			"componentType":5126,
			"count":240,
			"type":"VEC3"
		},
		{
			"bufferView":2,
			"componentType":5126,
			"count":240,
			"type":"VEC2"
		},
		{
			"bufferView":3,
			"componentType":5123,
			"count":240,
			"type":"SCALAR"
		},
		{
			"bufferView":4,
			"componentType":5126,
			"count":240,
			"max":[
				0.9510578513145447,
				1,
				0.9999999403953552
			],
			"min":[
				-0.9510578513145447,
				-1,
				-0.9999999403953552
			],
			"type":"VEC3"
		},
		{
			"bufferView":5,
			"componentType":5126,
			"count":240,
			"type":"VEC3"
		},
		{
			"bufferView":6,
			"componentType":5126,
			"count":240,
			"type":"VEC2"
		},
		{
			"bufferView":7,
			"componentType":5126,
			"count":240,
			"max":[
				0.9510578513145447,
				1,
				0.9999999403953552
			],
			"min":[
				-0.9510578513145447,
				-1,
				-0.9999999403953552
			],
			"type":"VEC3"
		},
		{
			"bufferView":8,
			"componentType":5126,
			"count":240,
			"type":"VEC3"
		},
		{
			"bufferView":9,
			"componentType":5126,
			"count":240,
			"type":"VEC2"
		},
		{
			"bufferView":10,
			"componentType":5126,
			"count":169,
			"max":[
				1,
				0.040000006556510925,
				0.04000000283122063
			],
			"min":[
				-1.0282843112945557,
				-0.040000006556510925,
				-0.2622208893299103
			],
			"type":"VEC3"
		},
		{
			"bufferView":11,
			"componentType":5126,
			"count":169,
			"type":"VEC3"
		},
		{
			"bufferView":12,
			"componentType":5126,
			"count":169,
			"type":"VEC2"
		},
		{
			"bufferView":13,
			"componentType":5123,
			"count":864,
			"type":"SCALAR"
		},
		{
			"bufferView":14,
			"componentType":5126,
			"count":1984,
			"max":[
				0.9999997019767761,
				1,
				0.9999993443489075
			],
			"min":[
				-0.9999990463256836,
				-1,
				-1
			],
			"type":"VEC3"
		},
		{
			"bufferView":15,
			"componentType":5126,
			"count":1984,
			"type":"VEC3"
		},
		{
			"bufferView":16,
			"componentType":5126,
			"count":1984,
			"type":"VEC2"
		},
		{
			"bufferView":17,
			"componentType":5123,
			"count":2880,
			"type":"SCALAR"
		},
		{
			"bufferView":18,
			"componentType":5126,
			"count":1984,
			"max":[
				0.9999997019767761,
				1,
				0.9999993443489075
			],
			"min":[
				-0.9999990463256836,
				-1,
				-1
			],
			"type":"VEC3"
		},
		{
			"bufferView":19,
			"componentType":5126,
			"count":1984,
			"type":"VEC3"
		},
		{
			"bufferView":20,
			"componentType":5126,
			"count":1984,
			"type":"VEC2"
		},
		{
			"bufferView":21,
			"componentType":5126,
			"count":1984,
			"max":[
				0.9999997019767761,
				1,
				0.9999993443489075
			],
			"min":[
				-0.9999990463256836,
				-1,
				-1
			],
			"type":"VEC3"
		},
		{
			"bufferView":22,
			"componentType":5126,
			"count":1984,
			"type":"VEC3"
		},
		{
			"bufferView":23,
			"componentType":5126,
			"count":1984,
			"type":"VEC2"
		},
		{
			"bufferView":24,
			"componentType":5126,
			"count":468,
			"max":[
				0.8126072287559509,
				0.07000000774860382,
				-0.7814598679542542
			],
			"min":[
				-0.8126099109649658,
				-0.07000000774860382,
				-1.0282286405563354
			],
			"type":"VEC3"
		},
		{
			"bufferView":25,
			"componentType":5126,
			"count":468,
			"type":"VEC3"
		},
		{
			"bufferView":26,
			"componentType":5126,
			"count":468,
			"type":"VEC2"
		},
		{
			"bufferView":27,
			"componentType":5123,
			"count":2520,
			"type":"SCALAR"
		},
		{
			"bufferView":28,
			"componentType":5126,
			"count":468,
			"max":[
				0.8126072287559509,
				0.07000000774860382,
				-0.7814598679542542
			],
			"min":[
				-0.8126099109649658,
				-0.07000000774860382,
				-1.0282286405563354
			],
			"type":"VEC3"
		},
		{
			"bufferView":29,
			"componentType":5126,
			"count":468,
			"type":"VEC3"
		},
		{
			"bufferView":30,
			"componentType":5126,
			"count":468,
			"type":"VEC2"
		},
		{
			"bufferView":31,
			"componentType":5126,
			"count":468,
			"max":[
				0.8126072287559509,
				0.07000000774860382,
				-0.2814599871635437
			],
			"min":[
				-0.8126099109649658,
				-0.07000000774860382,
				-0.5282286405563354
			],
			"type":"VEC3"
		},
		{
			"bufferView":32,
			"componentType":5126,
			"count":468,
			"type":"VEC3"
		},
		{
			"bufferView":33,
			"componentType":5126,
			"count":468,
			"type":"VEC2"
		},
		{
			"bufferView":34,
			"componentType":5126,
			"count":468,
			"max":[
				0.8126072287559509,
				0.07000000774860382,
				-0.2814599871635437
			],
			"min":[
				-0.8126099109649658,
				-0.07000000774860382,
				-0.5282286405563354
			],
			"type":"VEC3"
		},
		{
			"bufferView":35,
			"componentType":5126,
			"count":468,
			"type":"VEC3"
		},
		{
			"bufferView":36,
			"componentType":5126,
			"count":468,
			"type":"VEC2"
		},
		{
			"bufferView":37,
			"componentType":5126,
			"count":128,
			"max":[
				1,
				1,
				1
			],
			"min":[
				-1,
				-1,
				-1
			],
			"type":"VEC3"
		},
		{
			"bufferView":38,
			"componentType":5126,
			"count":128,
			"type":"VEC3"
		},
		{
			"bufferView":39,
			"componentType":5126,
			"count":128,
			"type":"VEC2"
		},
		{
			"bufferView":40,
			"componentType":5123,
			"count":186,
			"type":"SCALAR"
		},
		{
			"bufferView":41,
			"componentType":5126,
			"count":128,
			"max":[
				1,
				1,
				1
			],
			"min":[
				-1,
				-1,
				-1
			],
			"type":"VEC3"
		},
		{
			"bufferView":42,
			"componentType":5126,
			"count":128,
			"type":"VEC3"
		},
		{
			"bufferView":43,
			"componentType":5126,
			"count":128,
			"type":"VEC2"
		},
		{
			"bufferView":44,
			"componentType":5126,
			"count":128,
			"max":[
				1,
				1,
				1
			],
			"min":[
				-1,
				-1,
				-1
			],
			"type":"VEC3"
		},
		{
			"bufferView":45,
			"componentType":5126,
			"count":128,
			"type":"VEC3"
		},
		{
			"bufferView":46,
			"componentType":5126,
			"count":128,
			"type":"VEC2"
		},
		{
			"bufferView":47,
			"componentType":5126,
			"count":640,
			"max":[
				1.9904632568359375,
				1.2025680541992188,
				7.793544769287109
			],
			"min":[
				-2.2556991577148438,
				-1.1257505416870117,
				-2.7575759887695312
			],
			"type":"VEC3"
		},
		{
			"bufferView":48,
			"componentType":5126,
			"count":640,
			"type":"VEC3"
		},
		{
			"bufferView":49,
			"componentType":5126,
			"count":640,
			"type":"VEC2"
		},
		{
			"bufferView":50,
			"componentType":5123,
			"count":930,
			"type":"SCALAR"
		}
	],
	"bufferViews":[
		{
			"buffer":0,
			"byteLength":2880,
			"byteOffset":0,
			"target":34962
		},
		{
			"buffer":0,
			"byteLength":2880,
			"byteOffset":2880,
			"target":34962
		},
		{
			"buffer":0,
			"byteLength":1920,
			"byteOffset":5760,
			"target":34962
		},
		{
			"buffer":0,
			"byteLength":480,
			"byteOffset":7680,
			"target":34963
		},
		{
			"buffer":0,
			"byteLength":2880,
			"byteOffset":8160,
			"target":34962
		},
		{
			"buffer":0,
			"byteLength":2880,
			"byteOffset":11040,
			"target":34962
		},
		{
			"buffer":0,
			"byteLength":1920,
			"byteOffset":13920,
			"target":34962
		},
		{
			"buffer":0,
			"byteLength":2880,
			"byteOffset":15840,
			"target":34962
		},
		{
			"buffer":0,
			"byteLength":2880,
			"byteOffset":18720,
			"target":34962
		},
		{
			"buffer":0,
			"byteLength":1920,
			"byteOffset":21600,
			"target":34962
		},
		{
			"buffer":0,
			"byteLength":2028,
			"byteOffset":23520,
			"target":34962
		},
		{
			"buffer":0,
			"byteLength":2028,
			"byteOffset":25548,
			"target":34962
		},
		{
			"buffer":0,
			"byteLength":1352,
			"byteOffset":27576,
			"target":34962
		},
		{
			"buffer":0,
			"byteLength":1728,
			"byteOffset":28928,
			"target":34963
		},
		{
			"buffer":0,
			"byteLength":23808,
			"byteOffset":30656,
			"target":34962
		},
		{
			"buffer":0,
			"byteLength":23808,
			"byteOffset":54464,
			"target":34962
		},
		{
			"buffer":0,
			"byteLength":15872,
			"byteOffset":78272,
			"target":34962
		},
		{
			"buffer":0,
			"byteLength":5760,
			"byteOffset":94144,
			"target":34963
		},
		{
			"buffer":0,
			"byteLength":23808,
			"byteOffset":99904,
			"target":34962
		},
		{
			"buffer":0,
			"byteLength":23808,
			"byteOffset":123712,
			"target":34962
		},
		{
			"buffer":0,
			"byteLength":15872,
			"byteOffset":147520,
			"target":34962
		},
		{
			"buffer":0,
			"byteLength":23808,
			"byteOffset":163392,
			"target":34962
		},
		{
			"buffer":0,
			"byteLength":23808,
			"byteOffset":187200,
			"target":34962
		},
		{
			"buffer":0,
			"byteLength":15872,
			"byteOffset":211008,
			"target":34962
		},
		{
			"buffer":0,
			"byteLength":5616,
			"byteOffset":226880,
			"target":34962
		},
		{
			"buffer":0,
			"byteLength":5616,
			"byteOffset":232496,
			"target":34962
		},
		{
			"buffer":0,
			"byteLength":3744,
			"byteOffset":238112,
			"target":34962
		},
		{
			"buffer":0,
			"byteLength":5040,
			"byteOffset":241856,
			"target":34963
		},
		{
			"buffer":0,
			"byteLength":5616,
			"byteOffset":246896,
			"target":34962
		},
		{
			"buffer":0,
			"byteLength":5616,
			"byteOffset":252512,
			"target":34962
		},
		{
			"buffer":0,
			"byteLength":3744,
			"byteOffset":258128,
			"target":34962
		},
		{
			"buffer":0,
			"byteLength":5616,
			"byteOffset":261872,
			"target":34962
		},
		{
			"buffer":0,
			"byteLength":5616,
			"byteOffset":267488,
			"target":34962
		},
		{
			"buffer":0,
			"byteLength":3744,
			"byteOffset":273104,
			"target":34962
		},
		{
			"buffer":0,
			"byteLength":5616,
			"byteOffset":276848,
			"target":34962
		},
		{
			"buffer":0,
			"byteLength":5616,
			"byteOffset":282464,
			"target":34962
		},
		{
			"buffer":0,
			"byteLength":3744,
			"byteOffset":288080,
			"target":34962
		},
		{
			"buffer":0,
			"byteLength":1536,
			"byteOffset":291824,
			"target":34962
		},
		{
			"buffer":0,
			"byteLength":1536,
			"byteOffset":293360,
			"target":34962
		},
		{
			"buffer":0,
			"byteLength":1024,
			"byteOffset":294896,
			"target":34962
		},
		{
			"buffer":0,
			"byteLength":372,
			"byteOffset":295920,
			"target":34963
		},
		{
			"buffer":0,
			"byteLength":1536,
			"byteOffset":296292,
			"target":34962
		},
		{
			"buffer":0,
			"byteLength":1536,
			"byteOffset":297828,
			"target":34962
		},
		{
			"buffer":0,
			"byteLength":1024,
			"byteOffset":299364,
			"target":34962
		},
		{
			"buffer":0,
			"byteLength":1536,
			"byteOffset":300388,
			"target":34962
		},
		{
			"buffer":0,
			"byteLength":1536,
			"byteOffset":301924,
			"target":34962
		},
		{
			"buffer":0,
			"byteLength":1024,
			"byteOffset":303460,
			"target":34962
		},
		{
			"buffer":0,
			"byteLength":7680,
			"byteOffset":304484,
			"target":34962
		},
		{
			"buffer":0,
			"byteLength":7680,
			"byteOffset":312164,
			"target":34962
		},
		{
			"buffer":0,
			"byteLength":5120,
			"byteOffset":319844,
			"target":34962
		},
		{
			"buffer":0,
			"byteLength":1860,
			"byteOffset":324964,
			"target":34963
		}
	],
	"buffers":[
		{
			"byteLength":326824,
			"uri":"angler.bin"
		}
	]
}
