{
	"asset":{
		"generator":"Khronos glTF Blender I/O v4.3.47",
		"version":"2.0"
	},
	"scene":0,
	"scenes":[
		{
			"name":"Scene",
			"nodes":[
				0,
				1,
				2,
				3,
				4,
				5,
				6,
				7,
				8
			]
		}
	],
	"nodes":[
		{
			"mesh":0,
			"name":"Icosphere",
			"scale":[
				2.598465919494629,
				1,
				1
			],
			"translation":[
				-0.30758804082870483,
				0,
				0
			]
		},
		{
			"mesh":1,
			"name":"NurbsCurve",
			"scale":[
				1,
				0.5189055800437927,
				4.866246223449707
			],
			"translation":[
				0,
				0,
				3.2168049812316895
			]
		},
		{
			"mesh":2,
			"name":"NurbsCurve.001",
			"rotation":[
				0.9999881386756897,
				0,
				0,
				0.0048730936832726
			],
			"scale":[
				1,
				0.518905520439148,
				4.866246223449707
			],
			"translation":[
				0,
				0,
				-3.3042221069335938
			]
		},
		{
			"mesh":3,
			"name":"NurbsCurve.002",
			"rotation":[
				-0.4914504885673523,
				-0.47804439067840576,
				0.5219638347625732,
				0.5074482560157776
			],
			"scale":[
				0.8309541344642639,
				0.4292803704738617,
				2.795936107635498
			],
			"translation":[
				-0.3287174701690674,
				-0.02934158593416214,
				0.12291711568832397
			]
		},
		{
			"mesh":4,
			"name":"Sphere",
			"scale":[
				0.2821013331413269,
				0.2821013331413269,
				0.2821013331413269
			],
			"translation":[
				-2.107820987701416,
				0.37788283824920654,
				0.5196268558502197
			]
		},
		{
			"mesh":5,
			"name":"Sphere.001",
			"scale":[
				0.2821013331413269,
				0.2821013331413269,
				0.2821013331413269
			],
			"translation":[
				-2.107820987701416,
				0.37788283824920654,
				-0.45705872774124146
			]
		},
		{
			"mesh":6,
			"name":"B\u00e9zierCurve",
			"rotation":[
				-0.5130971670150757,
				0.4708845317363739,
				0.5287269949913025,
				0.48522862792015076
			],
			"scale":[
				0.18084046244621277,
				0.43436890840530396,
				1.228312611579895
			],
			"translation":[
				-2.7899749279022217,
				0.15784308314323425,
				0.25364160537719727
			]
		},
		{
			"mesh":7,
			"name":"B\u00e9zierCurve.001",
			"rotation":[
				-0.5378362536430359,
				-0.4767129719257355,
				-0.503540575504303,
				0.47950366139411926
			],
			"scale":[
				0.18084044754505157,
				0.43436890840530396,
				1.228312611579895
			],
			"translation":[
				-2.7899749279022217,
				0.15784308314323425,
				-0.3262979984283447
			]
		},
		{
			"mesh":8,
			"name":"NurbsCurve.003",
			"rotation":[
				-0.4990713596343994,
				-0.5019925236701965,
				-0.4995785355567932,
				0.49935227632522583
			],
			"scale":[
				0.21252745389938354,
				0.42927613854408264,
				0.5003275871276855
			],
			"translation":[
				-2.7712185382843018,
				0.32435131072998047,
				-0.026895269751548767
			]
		}
	],
	"materials":[
		{
			"doubleSided":true,
			"name":"Material.001",
			"pbrMetallicRoughness":{
				"baseColorFactor":[
					0.8001416921615601,
					0.2877395451068878,
					0.12004496157169342,
					1
				],
				"metallicFactor":0,
				"roughnessFactor":0.5
			}
		},
		{
			"doubleSided":true,
			"name":"Material.003",
			"pbrMetallicRoughness":{
				"metallicFactor":0,
				"roughnessFactor":0.5
			}
		},
		{
			"doubleSided":true,
			"name":"Material.002",
			"pbrMetallicRoughness":{
				"metallicFactor":0,
				"roughnessFactor":0.5
			}
		},
		{
			"doubleSided":true,
			"name":"Material.004",
			"pbrMetallicRoughness":{
				"baseColorFactor":[
					0,
					0,
					0,
					1
				],
				"metallicFactor":0,
				"roughnessFactor":0.5
			}
		},
		{
			"doubleSided":true,
			"name":"Material.006",
			"pbrMetallicRoughness":{
				"baseColorFactor":[
					0.06662552058696747,
					0.06662601977586746,
					0.06662598997354507,
					1
				],
				"metallicFactor":0,
				"roughnessFactor":0.5
			}
		},
		{
			"doubleSided":true,
			"name":"Material.005",
			"pbrMetallicRoughness":{
				"baseColorFactor":[
					0.06662552058696747,
					0.06662601977586746,
					0.06662598997354507,
					1
				],
				"metallicFactor":0,
				"roughnessFactor":0.5
			}
		},
		{
			"doubleSided":true,
			"name":"Material.007",
			"pbrMetallicRoughness":{
				"baseColorFactor":[
					0,
					0,
					0,
					1
				],
				"metallicFactor":0,
				"roughnessFactor":0.5
			}
		},
		{
			"doubleSided":true,
			"name":"Material.008",
			"pbrMetallicRoughness":{
				"baseColorFactor":[
					0,
					0,
					0,
					1
				],
				"metallicFactor":0,
				"roughnessFactor":0.5
			}
		},
		{
			"doubleSided":true,
			"name":"Material.009",
			"pbrMetallicRoughness":{
				"baseColorFactor":[
					0,
					0,
					0,
					1
				],
				"metallicFactor":0,
				"roughnessFactor":0.5
			}
		}
	],
	"meshes":[
		{
			"name":"Icosphere",
			"primitives":[
				{
					"attributes":{
						"POSITION":0,
						"NORMAL":1,
						"TEXCOORD_0":2
					},
					"indices":3,
					"material":0
				}
			]
		},
		{
			"name":"NurbsCurve",
			"primitives":[
				{
					"attributes":{
						"POSITION":4,
						"NORMAL":5,
						"TEXCOORD_0":6
					},
					"indices":7,
					"material":1
				}
			]
		},
		{
			"name":"NurbsCurve.001",
			"primitives":[
				{
					"attributes":{
						"POSITION":8,
						"NORMAL":9,
						"TEXCOORD_0":10
					},
					"indices":7,
					"material":2
				}
			]
		},
		{
			"name":"NurbsCurve.002",
			"primitives":[
				{
					"attributes":{
						"POSITION":11,
						"NORMAL":12,
						"TEXCOORD_0":13
					},
					"indices":7,
					"material":3
				}
			]
		},
		{
			"name":"Sphere",
			"primitives":[
				{
					"attributes":{
						"POSITION":14,
						"NORMAL":15,
						"TEXCOORD_0":16
					},
					"indices":17,
					"material":4
				}
			]
		},
		{
			"name":"Sphere.001",
			"primitives":[
				{
					"attributes":{
						"POSITION":18,
						"NORMAL":19,
						"TEXCOORD_0":20
					},
					"indices":17,
					"material":5
				}
			]
		},
		{
			"name":"B\u00e9zierCurve",
			"primitives":[
				{
					"attributes":{
						"POSITION":21,
						"NORMAL":22,
						"TEXCOORD_0":23
					},
					"indices":24,
					"material":6
				}
			]
		},
		{
			"name":"B\u00e9zierCurve.001",
			"primitives":[
				{
					"attributes":{
						"POSITION":25,
						"NORMAL":26,
						"TEXCOORD_0":27
					},
					"indices":24,
					"material":7
				}
			]
		},
		{
			"name":"NurbsCurve.003",
			"primitives":[
				{
					"attributes":{
						"POSITION":28,
						"NORMAL":29,
						"TEXCOORD_0":30
					},
					"indices":7,
					"material":8
				}
			]
		}
	],
	"accessors":[
		{
			"bufferView":0,
			"componentType":5126,
			"count":240,
			"max":[
				0.9510578513145447,
				1,
				0.9999999403953552
			],
			"min":[
				-0.9510578513145447,
				-1,
				-0.9999999403953552
			],
			"type":"VEC3"
		},
		{
			"bufferView":1,
			"componentType":5126,
			"count":240,
			"type":"VEC3"
		},
		{
			"bufferView":2,
			"componentType":5126,
			"count":240,
			"type":"VEC2"
		},
		{
			"bufferView":3,
			"componentType":5123,
			"count":240,
			"type":"SCALAR"
		},
		{
			"bufferView":4,
			"componentType":5126,
			"count":468,
			"max":[
				0.875217080116272,
				0.14000001549720764,
				-0.7157090306282043
			],
			"min":[
				-0.8752198219299316,
				-0.14000001549720764,
				-1.0982259511947632
			],
			"type":"VEC3"
		},
		{
			"bufferView":5,
			"componentType":5126,
			"count":468,
			"type":"VEC3"
		},
		{
			"bufferView":6,
			"componentType":5126,
			"count":468,
			"type":"VEC2"
		},
		{
			"bufferView":7,
			"componentType":5123,
			"count":2520,
			"type":"SCALAR"
		},
		{
			"bufferView":8,
			"componentType":5126,
			"count":468,
			"max":[
				0.875217080116272,
				0.14000001549720764,
				-0.7157090306282043
			],
			"min":[
				-0.8752198219299316,
				-0.14000001549720764,
				-1.0982259511947632
			],
			"type":"VEC3"
		},
		{
			"bufferView":9,
			"componentType":5126,
			"count":468,
			"type":"VEC3"
		},
		{
			"bufferView":10,
			"componentType":5126,
			"count":468,
			"type":"VEC2"
		},
		{
			"bufferView":11,
			"componentType":5126,
			"count":468,
			"max":[
				0.875217080116272,
				0.14000001549720764,
				-0.7157090306282043
			],
			"min":[
				-0.8752198219299316,
				-0.14000001549720764,
				-1.0982259511947632
			],
			"type":"VEC3"
		},
		{
			"bufferView":12,
			"componentType":5126,
			"count":468,
			"type":"VEC3"
		},
		{
			"bufferView":13,
			"componentType":5126,
			"count":468,
			"type":"VEC2"
		},
		{
			"bufferView":14,
			"componentType":5126,
			"count":1984,
			"max":[
				0.9999997019767761,
				1,
				0.9999993443489075
			],
			"min":[
				-0.9999990463256836,
				-1,
				-1
			],
			"type":"VEC3"
		},
		{
			"bufferView":15,
			"componentType":5126,
			"count":1984,
			"type":"VEC3"
		},
		{
			"bufferView":16,
			"componentType":5126,
			"count":1984,
			"type":"VEC2"
		},
		{
			"bufferView":17,
			"componentType":5123,
			"count":2880,
			"type":"SCALAR"
		},
		{
			"bufferView":18,
			"componentType":5126,
			"count":1984,
			"max":[
				0.9999997019767761,
				1,
				0.9999993443489075
			],
			"min":[
				-0.9999990463256836,
				-1,
				-1
			],
			"type":"VEC3"
		},
		{
			"bufferView":19,
			"componentType":5126,
			"count":1984,
			"type":"VEC3"
		},
		{
			"bufferView":20,
			"componentType":5126,
			"count":1984,
			"type":"VEC2"
		},
		{
			"bufferView":21,
			"componentType":5126,
			"count":169,
			"max":[
				1,
				0.07000000774860382,
				0.07000000029802322
			],
			"min":[
				-1.0494974851608276,
				-0.07000000774860382,
				-0.2922199070453644
			],
			"type":"VEC3"
		},
		{
			"bufferView":22,
			"componentType":5126,
			"count":169,
			"type":"VEC3"
		},
		{
			"bufferView":23,
			"componentType":5126,
			"count":169,
			"type":"VEC2"
		},
		{
			"bufferView":24,
			"componentType":5123,
			"count":864,
			"type":"SCALAR"
		},
		{
			"bufferView":25,
			"componentType":5126,
			"count":169,
			"max":[
				1,
				0.07000000774860382,
				0.07000000029802322
			],
			"min":[
				-1.0494974851608276,
				-0.07000000774860382,
				-0.2922199070453644
			],
			"type":"VEC3"
		},
		{
			"bufferView":26,
			"componentType":5126,
			"count":169,
			"type":"VEC3"
		},
		{
			"bufferView":27,
			"componentType":5126,
			"count":169,
			"type":"VEC2"
		},
		{
			"bufferView":28,
			"componentType":5126,
			"count":468,
			"max":[
				0.875217080116272,
				0.14000001549720764,
				-0.7157090306282043
			],
			"min":[
				-0.8752198219299316,
				-0.14000001549720764,
				-1.0982259511947632
			],
			"type":"VEC3"
		},
		{
			"bufferView":29,
			"componentType":5126,
			"count":468,
			"type":"VEC3"
		},
		{
			"bufferView":30,
			"componentType":5126,
			"count":468,
			"type":"VEC2"
		}
	],
	"bufferViews":[
		{
			"buffer":0,
			"byteLength":2880,
			"byteOffset":0,
			"target":34962
		},
		{
			"buffer":0,
			"byteLength":2880,
			"byteOffset":2880,
			"target":34962
		},
		{
			"buffer":0,
			"byteLength":1920,
			"byteOffset":5760,
			"target":34962
		},
		{
			"buffer":0,
			"byteLength":480,
			"byteOffset":7680,
			"target":34963
		},
		{
			"buffer":0,
			"byteLength":5616,
			"byteOffset":8160,
			"target":34962
		},
		{
			"buffer":0,
			"byteLength":5616,
			"byteOffset":13776,
			"target":34962
		},
		{
			"buffer":0,
			"byteLength":3744,
			"byteOffset":19392,
			"target":34962
		},
		{
			"buffer":0,
			"byteLength":5040,
			"byteOffset":23136,
			"target":34963
		},
		{
			"buffer":0,
			"byteLength":5616,
			"byteOffset":28176,
			"target":34962
		},
		{
			"buffer":0,
			"byteLength":5616,
			"byteOffset":33792,
			"target":34962
		},
		{
			"buffer":0,
			"byteLength":3744,
			"byteOffset":39408,
			"target":34962
		},
		{
			"buffer":0,
			"byteLength":5616,
			"byteOffset":43152,
			"target":34962
		},
		{
			"buffer":0,
			"byteLength":5616,
			"byteOffset":48768,
			"target":34962
		},
		{
			"buffer":0,
			"byteLength":3744,
			"byteOffset":54384,
			"target":34962
		},
		{
			"buffer":0,
			"byteLength":23808,
			"byteOffset":58128,
			"target":34962
		},
		{
			"buffer":0,
			"byteLength":23808,
			"byteOffset":81936,
			"target":34962
		},
		{
			"buffer":0,
			"byteLength":15872,
			"byteOffset":105744,
			"target":34962
		},
		{
			"buffer":0,
			"byteLength":5760,
			"byteOffset":121616,
			"target":34963
		},
		{
			"buffer":0,
			"byteLength":23808,
			"byteOffset":127376,
			"target":34962
		},
		{
			"buffer":0,
			"byteLength":23808,
			"byteOffset":151184,
			"target":34962
		},
		{
			"buffer":0,
			"byteLength":15872,
			"byteOffset":174992,
			"target":34962
		},
		{
			"buffer":0,
			"byteLength":2028,
			"byteOffset":190864,
			"target":34962
		},
		{
			"buffer":0,
			"byteLength":2028,
			"byteOffset":192892,
			"target":34962
		},
		{
			"buffer":0,
			"byteLength":1352,
			"byteOffset":194920,
			"target":34962
		},
		{
			"buffer":0,
			"byteLength":1728,
			"byteOffset":196272,
			"target":34963
		},
		{
			"buffer":0,
			"byteLength":2028,
			"byteOffset":198000,
			"target":34962
		},
		{
			"buffer":0,
			"byteLength":2028,
			"byteOffset":200028,
			"target":34962
		},
		{
			"buffer":0,
			"byteLength":1352,
			"byteOffset":202056,
			"target":34962
		},
		{
			"buffer":0,
			"byteLength":5616,
			"byteOffset":203408,
			"target":34962
		},
		{
			"buffer":0,
			"byteLength":5616,
			"byteOffset":209024,
			"target":34962
		},
		{
			"buffer":0,
			"byteLength":3744,
			"byteOffset":214640,
			"target":34962
		}
	],
	"buffers":[
		{
			"byteLength":218384,
			"uri":"happy-fish.bin"
		}
	]
}
